<svg width="256" height="256" xmlns="http://www.w3.org/2000/svg" xmlns:xlink="http://www.w3.org/1999/xlink"><use xlink:href="#a" fill="#111"/><g transform="translate(-4168 -1304)"><mask id="c"><use xlink:href="#b" fill="#fff" transform="translate(4264 1400)"/></mask><g mask="url(#c)"><use xlink:href="#d" transform="translate(4264 1400)" fill="#FFF"/></g></g><defs><path id="a" d="M256 128c0 70.692-57.308 128-128 128C57.308 256 0 198.692 0 128 0 57.308 57.308 0 128 0c70.692 0 128 57.308 128 128z"/><path id="b" d="M64 32c0 17.673-14.327 32-32 32C14.327 64 0 49.673 0 32 0 14.327 14.327 0 32 0c17.673 0 32 14.327 32 32z"/><path id="d" d="M54 32c0 12.15-9.85 22-22 22v20c23.196 0 42-18.804 42-42H54zM32 54c-12.15 0-22-9.85-22-22h-20c0 23.196 18.804 42 42 42V54zM10 32c0-12.15 9.85-22 22-22v-20C8.804-10-10 8.804-10 32h20zm22-22c12.15 0 22 9.85 22 22h20c0-23.196-18.804-42-42-42v20z"/></defs></svg>